<?xml version="1.0" encoding="UTF-8" standalone="no"?>
<!DOCTYPE svg PUBLIC "-//W3C//DTD SVG 1.1//EN" "http://www.w3.org/Graphics/SVG/1.1/DTD/svg11.dtd">
<svg xmlns="http://www.w3.org/2000/svg" version="1.1" viewBox="0 0 1000 550" width="1000.0pt" height="550.0pt">
<path d="M 0.00 0.00 L 1000.00 0.00 L 1000.00 550.00 L 0.00 550.00 L 0.00 0.00 Z" fill="#fefefe" />
<path d="M 719.19 22.59 C 727.61 23.02 734.80 30.52 734.84 38.97 C 735.11 43.47 733.16 47.29 731.87 51.52 C 736.75 51.61 741.06 51.05 745.60 53.35 C 751.36 56.08 755.07 63.57 752.53 69.63 C 750.60 75.22 746.54 79.46 741.76 82.76 C 737.87 85.13 733.97 84.61 729.62 84.63 C 729.42 88.37 729.87 91.72 728.36 95.21 C 726.97 98.45 725.69 101.59 722.79 103.77 C 719.68 106.13 716.06 108.74 712.00 108.75 C 708.90 108.83 705.55 109.02 702.53 108.30 C 694.39 104.80 687.18 98.20 685.81 89.06 C 686.04 86.03 686.67 83.05 686.79 80.00 C 684.47 79.35 682.09 78.81 679.83 77.96 C 677.55 77.06 675.79 75.40 673.67 74.37 C 669.63 73.99 665.53 74.39 661.72 75.83 C 657.39 77.47 652.71 79.19 648.98 81.97 C 645.44 84.57 641.93 87.17 638.55 89.97 C 639.48 93.23 640.56 96.66 640.79 100.05 C 640.94 108.52 640.11 116.96 638.33 125.24 C 642.50 126.63 646.08 129.00 649.96 131.00 C 654.60 133.38 658.38 137.51 661.20 141.83 C 665.37 148.59 663.90 157.10 659.05 163.07 C 655.86 166.53 651.05 168.70 647.61 171.66 C 646.56 172.47 647.83 173.87 648.23 174.71 C 653.56 183.04 657.97 191.96 660.36 201.60 C 663.26 209.71 663.86 218.08 663.75 226.62 C 670.17 226.17 675.94 226.39 680.65 231.35 C 684.88 235.54 683.26 240.52 684.06 245.84 C 688.25 245.11 692.75 243.58 697.00 243.61 C 702.29 244.01 707.93 247.21 710.24 252.11 C 710.99 254.32 709.97 257.15 709.06 259.20 C 707.11 263.85 703.62 266.60 700.19 270.07 C 706.16 272.67 711.82 275.62 713.78 282.34 C 715.51 286.69 712.35 290.58 709.14 293.14 C 705.28 296.30 700.92 296.46 696.25 297.51 C 698.14 304.88 698.03 312.42 694.21 319.15 C 690.67 324.05 686.17 328.06 679.95 328.84 C 675.49 329.99 670.91 328.08 667.04 325.97 C 663.38 323.88 661.98 319.85 661.62 315.86 C 661.33 310.93 660.88 306.05 660.29 301.15 C 656.66 303.41 652.69 304.91 648.96 306.92 C 646.80 310.31 645.88 314.55 644.40 318.28 C 641.67 325.34 638.96 332.61 635.16 339.16 C 632.57 343.74 630.71 348.34 627.66 352.64 C 623.62 358.39 620.34 364.33 615.55 369.54 C 606.00 379.89 595.52 389.19 583.98 397.28 C 584.81 399.94 585.69 403.24 587.68 405.26 C 589.46 406.87 591.60 408.07 593.52 409.50 C 597.52 412.57 602.17 413.69 606.08 416.91 C 610.56 420.56 614.04 426.41 615.27 432.02 C 615.85 438.71 615.80 445.65 613.90 452.13 C 612.24 458.31 609.25 463.64 606.23 469.22 C 601.95 477.06 595.58 484.00 589.46 490.47 C 586.07 494.17 581.34 496.32 578.46 500.35 C 590.93 500.52 603.52 501.24 615.97 500.37 C 621.48 499.45 627.04 499.91 632.52 498.86 C 635.66 498.36 638.81 497.92 641.98 497.62 C 641.51 498.51 641.02 499.39 640.49 500.26 C 633.39 501.19 626.20 502.50 619.01 502.35 C 611.66 502.37 604.36 503.03 597.01 502.75 C 589.68 502.92 582.38 502.48 575.05 502.73 C 572.40 502.87 569.66 504.30 567.16 505.18 C 563.68 506.48 560.04 506.75 556.62 508.27 C 560.95 509.24 565.05 508.10 569.21 509.84 C 568.38 510.43 567.54 510.99 566.68 511.53 C 561.91 511.76 556.94 511.65 552.18 511.31 C 549.82 511.20 548.45 508.02 546.05 507.66 C 541.00 506.51 536.22 505.91 531.59 503.35 C 528.27 501.69 524.97 499.04 521.07 499.47 C 512.27 500.03 503.37 498.90 494.62 499.63 C 490.89 500.80 488.24 500.17 484.58 499.26 C 484.61 498.94 484.64 498.63 484.67 498.31 C 488.08 498.76 491.44 498.45 494.86 498.50 C 498.98 498.56 502.84 497.22 506.94 497.37 C 511.23 497.44 515.56 497.35 519.85 497.15 C 517.41 493.13 514.23 489.96 512.39 485.57 C 509.06 478.76 509.02 471.37 509.17 463.94 C 509.19 459.50 511.80 455.58 513.22 451.27 C 515.18 445.13 519.05 440.89 522.79 435.79 C 527.96 428.95 534.78 424.11 542.36 420.25 C 543.45 419.43 545.24 419.19 544.47 417.46 C 542.96 415.76 541.01 414.38 539.03 413.27 C 533.10 412.79 526.98 414.94 520.99 415.30 C 512.36 416.52 503.69 416.77 495.00 417.38 C 487.80 416.78 480.63 416.36 473.53 414.92 C 467.19 414.05 460.91 413.07 454.70 411.48 C 443.68 408.64 432.60 405.71 421.87 401.92 C 412.75 398.02 403.75 394.13 395.61 388.39 C 387.92 384.70 381.74 379.19 375.47 373.53 C 371.43 369.84 368.05 365.62 364.30 361.66 C 363.36 360.77 362.27 359.58 360.98 359.24 C 351.35 362.68 343.79 370.41 339.78 379.72 C 336.90 387.49 333.72 396.09 328.89 402.89 C 326.35 406.05 323.41 409.99 319.51 411.43 C 315.65 413.17 311.14 412.82 306.96 412.81 C 298.31 412.36 291.64 408.12 284.99 403.01 C 280.63 399.57 277.40 394.26 274.34 389.66 C 267.91 379.83 264.05 368.01 262.10 356.49 C 260.09 348.71 260.34 340.95 260.49 333.00 C 260.68 327.57 261.95 322.08 263.04 316.77 C 264.27 310.73 266.92 305.35 270.14 300.15 C 273.64 294.93 277.55 289.95 283.75 287.92 C 287.85 286.74 292.71 285.89 296.86 287.21 C 302.87 289.17 308.43 291.43 312.21 296.79 C 318.36 303.95 321.68 312.70 322.45 322.05 C 322.53 324.73 322.67 327.35 323.30 329.96 C 329.52 326.91 335.17 322.42 340.95 318.58 C 340.69 314.43 339.82 310.39 338.85 306.36 C 336.80 298.04 336.44 289.19 335.09 280.65 C 334.30 276.17 334.90 271.58 334.51 267.01 C 333.49 257.32 335.80 246.97 336.82 237.28 C 334.64 236.65 332.36 235.77 330.09 235.67 C 327.72 236.12 327.13 238.30 326.03 240.11 C 323.30 245.67 317.21 249.50 311.02 249.64 C 307.20 249.82 303.47 249.97 300.05 247.98 C 295.49 245.76 292.49 240.60 291.13 235.89 C 289.95 232.02 291.68 228.89 289.39 225.53 C 287.31 222.02 285.98 218.18 285.84 214.08 C 286.46 211.27 287.65 208.54 288.61 205.83 C 283.90 204.98 278.83 204.88 274.75 202.32 C 268.34 198.91 265.02 191.00 265.71 184.00 C 266.40 179.84 269.37 175.99 273.06 173.99 C 279.68 170.13 286.71 166.84 294.55 168.88 C 297.68 170.06 300.46 172.02 303.55 173.34 C 304.92 167.02 303.68 160.72 304.56 154.41 C 306.00 145.99 313.43 139.65 321.43 137.62 C 325.56 137.13 330.20 136.80 334.23 137.91 C 337.91 139.70 340.81 143.72 342.11 147.54 C 342.98 152.24 343.43 157.27 343.42 162.05 C 342.92 168.53 341.13 175.03 340.13 181.42 C 344.73 182.13 349.36 183.43 354.02 183.56 C 356.36 183.76 357.17 182.00 358.49 180.45 C 360.60 177.51 362.35 174.29 364.30 171.25 C 369.02 163.75 374.67 157.17 380.86 150.86 C 386.44 144.66 391.76 138.54 398.41 133.41 C 403.03 129.86 407.00 126.01 412.17 123.21 C 416.65 120.76 420.86 117.95 425.07 115.06 C 431.81 110.48 439.89 107.89 446.84 103.84 C 449.01 102.39 447.98 100.63 447.81 98.52 C 446.67 91.93 449.05 85.22 452.98 79.98 C 459.11 72.79 468.76 69.29 477.97 68.61 C 482.75 67.97 487.59 68.82 492.33 68.28 C 494.87 66.22 496.92 63.55 499.32 61.32 C 509.31 51.31 521.54 44.47 534.83 39.86 C 541.27 37.71 548.27 37.04 554.96 35.78 C 565.78 34.79 577.08 34.93 587.67 37.57 C 596.74 39.23 605.18 43.96 612.28 49.72 C 615.66 52.49 619.04 54.78 621.74 58.26 C 624.64 62.04 626.99 66.29 629.56 70.31 C 633.66 69.08 636.67 66.44 640.51 64.60 C 648.88 59.97 659.07 56.04 668.76 56.64 C 672.62 51.46 676.40 46.92 682.81 44.89 C 687.66 43.44 691.52 45.01 696.25 45.64 C 697.29 41.22 697.23 36.52 699.89 32.88 C 702.06 29.80 704.58 26.56 708.25 25.27 C 711.74 23.92 715.47 22.93 719.19 22.59 Z" fill="#0c141b" />
<path d="M 724.93 28.67 C 727.55 30.26 729.45 33.04 729.51 36.17 C 729.71 42.08 727.50 48.07 723.16 52.17 C 720.92 51.13 718.42 49.36 715.91 49.28 C 711.82 49.13 707.77 49.26 703.69 49.52 C 703.16 45.38 702.95 40.89 705.02 37.11 C 708.44 30.06 717.62 26.92 724.93 28.67 Z" fill="#fefefe" />
<path d="M 555.30 41.60 C 563.10 41.22 571.05 41.16 578.85 41.58 C 594.20 43.23 607.85 51.65 617.36 63.63 C 619.64 66.77 622.22 70.81 622.45 74.77 C 618.65 80.93 613.20 86.13 609.19 92.23 C 603.85 99.63 603.90 107.75 599.74 115.84 C 588.33 114.58 578.48 109.85 568.45 104.62 C 558.82 99.32 549.21 93.96 539.79 88.30 C 531.28 83.57 521.84 78.86 514.04 72.93 C 510.75 70.47 508.18 67.44 506.00 63.98 C 511.15 58.78 517.67 54.70 523.99 51.06 C 533.62 45.61 544.34 42.72 555.30 41.60 Z" fill="#ee3f2f" />
<path d="M 699.78 52.79 C 697.34 55.73 694.64 57.77 693.68 61.66 C 692.13 65.60 693.06 69.19 693.53 73.21 C 687.07 76.92 677.53 74.05 674.74 66.95 C 674.37 63.96 674.28 60.46 675.88 57.80 C 677.87 54.09 681.96 51.44 685.76 49.87 C 690.89 48.74 696.01 48.56 699.78 52.79 Z" fill="#fefefe" />
<path d="M 710.32 54.34 C 713.13 54.07 716.61 54.32 718.98 55.99 C 721.44 58.37 723.18 62.47 721.98 65.86 C 720.85 69.55 718.29 72.89 715.20 75.17 C 712.76 77.16 709.09 76.85 706.14 76.59 C 703.72 76.53 701.66 73.93 700.55 72.02 C 699.90 67.78 700.12 63.20 702.61 59.54 C 704.38 57.02 707.23 54.83 710.32 54.34 Z" fill="#feea08" />
<path d="M 743.47 57.69 C 746.97 59.47 748.36 63.99 746.46 67.46 C 744.02 72.71 739.18 78.59 733.01 79.16 C 730.34 79.81 727.26 77.92 724.79 77.01 C 726.09 73.97 727.65 70.89 728.47 67.69 C 728.95 64.81 728.61 61.77 728.65 58.86 C 733.75 57.99 738.21 56.69 743.47 57.69 Z" fill="#fefefe" />
<path d="M 667.57 63.28 C 667.58 64.74 667.61 66.21 667.63 67.68 C 660.82 69.80 654.37 71.34 648.10 74.91 C 636.54 82.01 626.56 91.06 620.05 103.11 C 617.85 107.36 616.93 112.55 615.92 117.22 C 613.82 117.25 611.73 117.28 609.63 117.30 C 609.62 114.26 609.57 111.33 610.61 108.41 C 612.48 103.03 613.98 97.98 617.50 93.39 C 620.90 88.92 625.05 84.98 629.04 81.04 C 635.85 74.45 643.97 69.55 652.68 65.92 C 657.47 63.97 662.45 63.47 667.57 63.28 Z" fill="#018dcb" />
<path d="M 499.49 70.46 C 500.22 70.30 500.81 70.40 501.27 70.76 C 505.25 73.74 508.89 77.16 512.94 80.05 C 517.07 83.34 521.78 85.26 526.49 87.51 C 542.02 96.90 557.99 105.66 574.20 113.82 C 587.48 119.39 602.52 123.98 617.02 123.67 C 621.88 123.76 626.24 124.89 630.99 125.66 C 630.23 130.99 629.03 136.36 627.30 141.47 C 626.73 142.87 625.81 145.35 624.01 145.36 C 617.08 146.08 609.97 145.59 603.00 145.54 C 596.35 145.55 590.24 143.95 583.62 143.40 C 575.88 142.66 568.33 141.59 560.93 139.10 C 555.03 137.08 549.22 135.01 543.55 132.39 C 535.31 128.74 527.77 123.50 519.79 119.18 C 512.70 115.01 505.90 111.51 499.77 106.25 C 496.14 103.23 491.37 100.02 489.22 95.73 C 487.56 93.02 489.18 89.69 490.16 87.00 C 492.73 81.29 495.55 75.36 499.49 70.46 Z" fill="#feea08" />
<path d="M 487.05 73.56 C 485.56 80.75 480.95 87.05 480.28 94.19 C 480.02 96.65 481.29 98.37 482.82 100.12 C 491.62 109.36 501.93 116.91 513.14 122.95 C 521.42 127.22 528.67 132.84 537.15 136.73 C 544.04 139.89 551.31 142.35 558.55 144.57 C 573.51 148.96 589.53 150.44 604.99 152.26 C 613.91 152.65 622.69 153.89 631.64 153.59 C 633.59 146.74 634.74 139.77 637.33 133.10 C 644.74 132.95 650.77 137.29 654.82 143.19 C 656.80 146.15 656.94 150.03 656.17 153.41 C 654.83 157.63 651.33 161.27 647.85 163.88 C 643.95 166.77 639.60 167.01 634.96 167.63 C 627.57 168.49 620.34 170.75 612.96 171.42 C 605.39 171.80 597.82 171.73 590.31 170.61 C 582.50 169.85 575.09 167.36 567.31 166.43 C 559.47 165.17 551.59 163.78 543.84 162.10 C 537.15 160.35 530.58 159.21 524.45 156.53 C 517.64 153.57 510.64 151.45 504.08 147.91 C 496.12 143.56 488.58 139.33 482.03 132.97 C 477.09 128.09 471.15 124.63 466.45 119.55 C 461.21 113.88 456.71 107.99 454.96 100.30 C 453.13 92.52 456.59 83.68 463.26 79.24 C 470.32 74.54 478.64 72.79 487.05 73.56 Z" fill="#ee3f2f" />
<path d="M 696.95 78.94 C 701.86 81.32 706.54 83.46 712.14 83.41 C 715.19 83.51 717.84 81.60 720.47 80.28 C 725.11 84.81 724.05 91.69 720.55 96.54 C 717.74 100.14 713.58 103.53 709.00 104.38 C 704.47 104.45 699.80 101.40 696.57 98.41 C 691.17 93.19 690.61 83.74 696.95 78.94 Z" fill="#fefefe" />
<path d="M 633.10 98.39 C 633.72 104.18 633.79 109.95 632.60 115.67 C 630.23 116.20 627.99 116.80 625.53 116.49 C 625.26 115.38 625.19 114.30 625.33 113.25 C 626.27 107.55 628.82 102.33 633.10 98.39 Z" fill="#ee3f2f" />
<path d="M 450.37 109.54 C 453.20 113.69 456.03 117.86 459.52 121.48 C 463.66 125.83 468.33 129.19 472.94 133.08 C 476.76 136.31 480.41 139.61 484.47 142.54 C 502.21 155.06 522.77 162.88 543.73 168.11 C 561.44 173.04 579.73 176.16 598.07 177.44 C 606.62 177.69 615.27 177.74 623.83 177.42 C 629.15 177.24 634.40 175.29 639.69 175.40 C 642.91 176.81 645.21 181.13 646.88 184.09 C 653.53 197.64 657.78 212.26 656.52 227.49 C 656.16 230.15 654.36 232.77 653.08 235.10 C 650.54 239.51 648.19 244.72 648.49 249.91 C 648.70 254.05 649.64 258.18 650.36 262.26 C 644.24 262.83 638.62 261.40 633.73 265.95 C 634.95 267.04 636.11 268.58 637.61 269.27 C 640.33 269.62 643.26 268.92 645.99 268.73 C 650.30 268.27 654.58 268.69 658.89 268.50 C 661.34 268.64 663.98 266.03 663.40 263.53 C 661.41 260.99 657.98 259.19 656.50 256.34 C 654.56 251.68 655.60 246.18 657.65 241.72 C 659.28 238.02 661.25 234.78 665.27 233.39 C 669.55 231.49 675.70 232.62 677.21 237.56 C 678.51 243.11 676.00 249.74 675.28 255.34 C 677.22 255.64 678.78 256.68 680.61 255.68 C 685.85 253.14 689.54 249.49 695.75 249.15 C 699.02 248.60 701.69 250.45 703.35 253.14 C 703.70 257.36 700.11 261.51 697.22 264.22 C 693.42 267.86 688.91 269.17 684.06 270.81 C 684.83 272.99 684.93 275.52 687.58 276.20 C 691.64 276.84 696.83 275.62 701.05 276.90 C 703.96 277.78 706.40 280.15 708.68 282.10 C 708.13 283.43 707.57 284.81 706.92 286.10 C 705.31 289.73 700.73 291.82 696.99 292.26 C 692.38 292.03 688.36 290.60 683.74 292.14 C 685.53 295.58 688.66 298.01 690.50 301.33 C 693.28 310.63 687.58 321.23 678.48 324.46 C 675.82 325.31 672.66 324.02 670.47 322.52 C 668.26 320.96 667.51 317.82 667.00 315.31 C 665.69 306.93 666.79 299.26 667.59 290.99 C 666.30 290.41 665.01 289.83 663.72 289.25 C 658.46 293.16 655.51 297.82 649.59 300.59 C 644.68 303.09 639.44 302.49 634.07 302.58 C 633.31 303.51 632.54 304.45 631.79 305.39 C 634.48 307.01 636.76 307.65 639.87 307.97 C 639.77 312.45 638.97 316.13 637.24 320.25 C 631.05 335.72 623.05 350.68 612.89 363.92 C 606.98 371.80 599.36 378.60 591.55 384.55 C 587.67 387.59 583.03 389.24 579.02 392.00 C 576.68 393.46 577.24 396.32 577.58 398.64 C 579.22 404.42 583.07 409.68 588.21 412.83 C 593.52 416.16 599.09 417.70 603.64 422.36 C 608.00 426.84 609.72 432.84 609.51 438.99 C 609.56 449.07 605.67 457.46 601.17 466.20 C 598.03 472.24 593.22 477.55 589.00 483.06 C 584.48 488.93 578.70 492.48 572.78 496.79 C 569.20 499.35 565.39 501.39 560.98 502.04 C 552.34 503.35 543.16 502.95 535.35 498.67 C 530.83 496.19 525.62 493.75 522.44 489.58 C 516.92 482.54 514.81 472.83 515.93 464.05 C 517.72 454.67 523.31 445.60 529.25 438.24 C 533.44 432.78 539.10 428.31 545.33 425.39 C 548.72 423.79 553.17 424.21 556.22 422.13 C 556.56 420.63 556.74 419.08 556.95 417.56 C 554.40 416.34 551.64 415.23 549.33 413.60 C 546.36 411.42 544.41 407.79 541.52 405.47 C 539.88 405.34 538.11 406.15 536.55 406.61 C 530.16 408.92 522.91 409.32 516.11 410.46 C 507.71 411.91 499.46 411.52 490.99 411.58 C 485.17 411.60 479.36 410.33 473.50 409.66 C 461.40 408.17 450.46 404.61 438.72 401.54 C 434.08 400.33 429.59 398.69 425.16 396.87 C 418.72 394.23 412.49 392.21 406.56 388.48 C 400.86 384.93 394.67 381.69 389.44 377.55 C 384.25 373.44 379.31 369.02 374.91 364.06 C 367.60 356.19 360.91 348.43 356.51 338.50 C 350.64 326.49 347.30 313.58 344.67 300.52 C 343.27 292.41 342.73 284.16 341.81 275.99 C 340.53 262.15 342.80 249.21 344.80 235.58 C 346.70 225.64 349.73 215.86 353.58 206.50 C 359.89 191.80 367.42 177.92 377.15 165.18 C 382.04 158.71 388.06 153.38 393.30 147.23 C 395.91 144.14 399.00 141.62 402.16 139.13 C 406.74 135.52 410.60 131.68 415.67 128.70 C 419.65 126.37 423.67 124.12 427.49 121.51 C 434.46 116.68 442.67 113.37 450.37 109.54 Z" fill="#018dcb" />
<path d="M 328.03 141.72 C 332.73 141.77 335.77 146.78 336.38 150.93 C 336.88 156.54 336.83 162.44 336.38 168.05 C 335.83 174.13 333.09 178.92 330.24 184.14 C 332.26 185.48 334.15 186.80 336.62 187.16 C 342.07 187.99 347.52 188.71 352.94 189.78 C 351.72 193.20 350.28 196.51 348.74 199.79 C 345.42 206.92 343.10 214.58 341.08 222.17 C 340.30 225.16 339.19 228.04 337.97 230.88 C 335.40 230.63 332.49 230.79 330.05 229.88 C 328.04 226.79 326.80 223.21 325.02 219.97 C 322.34 215.16 323.62 209.60 320.82 205.13 C 318.71 201.68 315.18 199.64 311.26 198.94 C 305.73 198.03 300.03 198.16 294.61 199.66 C 288.77 201.32 282.15 200.28 277.17 196.83 C 272.59 193.50 272.23 186.50 274.74 181.84 C 277.88 176.43 284.84 173.37 290.91 173.34 C 296.35 173.80 301.53 178.07 305.62 181.37 C 307.15 182.64 309.08 183.29 310.66 181.69 C 312.10 180.58 311.47 178.11 311.42 176.54 C 310.47 169.96 309.81 162.74 311.06 156.15 C 312.47 148.23 319.92 141.70 328.03 141.72 Z" fill="#018dcb" />
<path d="M 458.49 145.72 C 466.70 143.47 474.35 152.50 472.15 160.34 C 470.89 168.02 465.50 173.64 458.80 177.10 C 456.11 178.19 452.82 177.97 450.03 177.42 C 445.02 176.37 441.29 171.90 440.53 166.94 C 440.09 163.23 442.04 159.25 444.11 156.27 C 447.50 151.44 452.59 146.98 458.49 145.72 Z" fill="#0c141b" />
<path d="M 496.23 162.22 C 501.72 162.20 507.64 164.42 509.16 170.27 C 510.31 175.76 507.80 182.23 504.77 186.78 C 501.96 190.58 498.24 195.03 493.01 194.68 C 487.33 194.66 480.37 191.41 480.30 184.88 C 479.48 178.91 481.70 173.92 485.44 169.44 C 488.07 166.34 491.84 162.18 496.23 162.22 Z" fill="#0c141b" />
<path d="M 304.36 205.08 C 308.43 203.65 312.97 205.44 314.76 209.38 C 316.11 212.18 315.12 215.05 313.97 217.71 C 311.46 224.22 302.20 226.63 296.76 222.34 C 293.17 220.03 292.59 214.96 294.10 211.29 C 295.95 207.87 300.84 206.16 304.36 205.08 Z" fill="#018dcb" />
<path d="M 441.00 209.55 C 446.90 209.69 453.28 208.64 458.69 211.36 C 464.61 214.39 470.43 218.13 475.12 222.89 C 479.58 227.40 484.64 231.67 487.73 237.18 C 493.34 247.19 497.48 257.63 498.42 269.17 C 498.61 272.45 498.58 275.74 498.59 279.03 C 498.89 287.32 495.98 296.06 494.00 304.13 C 492.25 311.46 488.28 317.08 484.35 323.35 C 481.10 328.42 476.95 332.47 472.67 336.66 C 467.13 342.27 459.70 346.40 452.69 349.88 C 447.15 352.67 441.28 354.59 435.03 354.71 C 428.51 354.82 421.55 355.12 415.16 353.70 C 400.82 350.86 387.42 341.95 376.94 332.04 C 368.88 324.46 365.48 314.68 363.07 304.16 C 362.05 298.93 362.51 293.30 362.41 287.99 C 362.16 278.35 364.58 268.58 367.79 259.55 C 374.42 244.56 384.83 229.78 398.82 220.84 C 402.82 218.17 407.10 215.35 411.59 213.60 C 421.09 210.25 430.96 209.13 441.00 209.55 Z" fill="#0c141b" />
<path d="M 318.45 224.48 C 320.93 227.42 321.92 230.93 320.94 234.70 C 319.76 240.43 313.66 244.48 308.02 244.50 C 303.54 244.19 299.88 239.98 298.66 235.88 C 298.33 234.57 298.07 232.30 299.36 231.43 C 302.77 230.02 306.71 229.97 310.23 228.83 C 313.13 227.94 315.81 225.99 318.45 224.48 Z" fill="#018dcb" />
<path d="M 300.18 293.91 C 305.64 297.06 309.60 302.85 312.58 308.26 C 316.23 315.03 316.87 322.46 316.44 330.02 C 316.25 333.25 315.34 336.72 315.78 339.89 C 317.64 341.13 319.57 342.00 321.85 341.47 C 323.05 340.41 324.08 339.13 325.10 337.90 C 329.36 332.19 336.70 328.65 342.88 325.33 C 346.06 331.52 348.36 338.06 351.73 344.15 C 353.41 347.22 355.12 350.26 356.69 353.39 C 350.39 357.57 344.31 361.58 339.69 367.70 C 332.40 376.67 331.53 386.54 325.81 396.88 C 323.41 401.24 319.66 406.97 314.49 408.14 C 308.89 409.17 302.82 407.94 297.93 405.04 C 290.06 400.56 283.87 393.56 279.19 385.90 C 273.03 375.59 270.09 364.60 267.59 352.97 C 266.21 346.52 266.62 339.58 266.78 333.01 C 267.60 324.67 270.20 315.24 273.82 307.67 C 276.96 301.74 281.61 294.78 288.11 292.27 C 292.19 290.55 296.51 291.84 300.18 293.91 Z" fill="#018dcb" />
<path d="M 344.32 404.02 C 345.55 405.02 346.70 405.90 347.19 407.48 C 348.29 410.81 349.34 415.25 347.63 418.52 C 345.89 422.58 342.26 425.50 338.14 426.92 C 333.14 428.34 327.04 426.46 326.16 420.68 C 328.57 422.11 330.52 424.37 333.05 425.53 C 339.78 426.32 345.92 420.67 346.15 414.00 C 345.88 410.57 344.68 407.42 344.32 404.02 Z" fill="#0c141b" />
<path d="M 358.71 418.62 C 359.85 419.65 361.40 420.60 361.56 422.28 C 362.40 426.35 358.68 430.73 354.99 431.98 C 353.33 432.91 351.63 431.75 350.00 431.28 C 352.66 430.33 355.92 430.13 357.63 427.61 C 359.66 425.40 358.53 421.39 358.71 418.62 Z" fill="#0c141b" />
<path d="M 365.97 437.60 C 366.88 437.40 367.79 437.21 368.70 437.04 C 368.57 438.09 368.44 439.14 368.30 440.19 C 367.50 439.34 366.71 438.50 365.97 437.60 Z" fill="#0c141b" />
<path d="M 507.97 504.65 C 514.98 504.98 521.77 504.69 528.76 504.09 C 528.78 504.85 528.80 505.61 528.83 506.38 C 523.52 506.83 518.36 507.73 513.00 507.39 C 500.12 506.78 487.30 507.92 474.44 507.42 C 474.39 506.77 474.35 506.13 474.31 505.49 C 485.51 505.74 496.81 505.65 507.97 504.65 Z" fill="#0c141b" />
<path d="M 450.49 504.82 C 450.54 505.82 450.60 506.83 450.65 507.83 C 449.42 507.76 448.19 507.68 446.96 507.60 C 447.74 505.38 448.41 505.44 450.49 504.82 Z" fill="#0c141b" />
<path d="M 458.36 504.61 C 458.47 505.61 458.57 506.61 458.68 507.60 C 457.71 507.46 456.75 507.33 455.78 507.19 C 456.86 506.47 457.62 505.68 458.36 504.61 Z" fill="#0c141b" />
<path d="M 467.28 505.51 C 467.33 506.21 467.39 506.91 467.44 507.61 C 465.59 507.45 463.75 507.27 461.90 507.03 C 463.67 506.22 465.30 505.63 467.28 505.51 Z" fill="#0c141b" />
<path d="M 653.16 505.39 C 651.91 506.88 651.25 508.19 649.07 508.28 C 641.10 509.03 632.99 508.73 625.00 508.62 C 623.10 508.70 621.94 507.97 620.44 506.93 C 628.58 506.24 636.82 506.95 644.96 506.19 C 647.69 505.82 650.39 505.39 653.16 505.39 Z" fill="#0c141b" />
<path d="M 609.73 507.28 C 609.62 508.23 609.52 509.18 609.42 510.13 C 600.30 511.02 591.03 510.79 581.88 510.61 C 579.85 510.74 578.36 509.80 576.65 508.87 C 583.58 507.94 590.70 508.66 597.68 508.21 C 601.70 507.91 605.72 507.64 609.73 507.28 Z" fill="#0c141b" />
<path d="M 496.88 513.49 C 497.70 514.00 498.51 514.53 499.31 515.06 C 494.83 516.92 490.43 515.89 485.81 516.85 C 482.04 516.96 478.28 516.93 474.53 516.48 C 477.92 514.78 481.37 514.98 485.01 514.45 C 488.90 513.85 492.94 513.32 496.88 513.49 Z" fill="#0c141b" />
<path d="M 462.59 514.09 C 463.51 514.79 464.37 515.55 465.24 516.31 C 464.14 516.46 463.03 516.61 461.93 516.75 C 462.14 515.86 462.36 514.97 462.59 514.09 Z" fill="#0c141b" />
<path d="M 485.01 514.45 C 481.37 514.98 477.92 514.78 474.53 516.48 C 478.28 516.93 482.04 516.96 485.81 516.85 C 479.70 517.91 473.00 516.64 466.83 516.03 C 472.88 515.33 478.94 514.90 485.01 514.45 Z" fill="#0c141b" />
<path d="M 510.62 513.95 C 512.14 515.05 513.50 516.32 514.88 517.58 C 513.45 517.18 512.02 516.78 510.60 516.32 C 510.59 515.53 510.60 514.74 510.62 513.95 Z" fill="#0c141b" />
<path d="M 556.88 514.81 C 563.97 515.57 571.13 515.74 578.25 515.73 C 585.47 515.23 592.69 515.71 599.96 515.76 C 604.20 515.73 607.85 516.68 612.02 516.05 C 615.67 515.49 619.33 515.54 623.00 515.28 C 631.88 514.22 641.04 514.89 650.00 514.57 C 651.67 514.54 654.44 514.66 653.15 517.10 C 646.80 517.54 640.37 517.11 634.00 517.27 C 629.36 517.45 624.92 516.18 620.49 517.05 C 616.75 517.64 612.76 517.57 608.99 517.81 C 599.72 519.05 590.54 517.94 581.02 518.25 C 576.59 518.44 572.40 518.31 568.00 517.79 C 555.99 517.19 543.93 517.10 531.91 517.49 C 529.81 517.54 527.73 517.39 525.66 517.14 C 528.09 515.87 530.13 515.31 532.93 515.48 C 541.03 515.87 548.79 514.09 556.88 514.81 Z" fill="#0c141b" />
<path d="M 523.48 515.65 C 523.55 516.29 523.63 516.93 523.71 517.57 C 521.07 517.52 518.44 517.47 515.81 517.20 C 518.16 515.17 520.60 515.81 523.48 515.65 Z" fill="#0c141b" />
<path d="M 598.98 523.87 C 597.97 525.45 598.31 526.85 595.99 526.54 C 575.00 525.65 554.10 527.38 533.10 526.37 C 528.47 526.06 523.88 526.38 519.25 526.59 C 519.33 525.85 519.41 525.12 519.49 524.38 C 523.01 524.77 526.43 524.81 529.96 524.55 C 538.05 523.91 545.94 525.15 554.03 524.45 C 569.05 524.18 583.81 523.05 598.98 523.87 Z" fill="#0c141b" />
<path d="M 491.33 523.88 C 491.42 524.78 491.50 525.68 491.59 526.58 C 490.60 526.52 489.62 526.46 488.63 526.39 C 489.40 525.27 490.17 524.57 491.33 523.88 Z" fill="#0c141b" />
<path d="M 493.82 524.71 C 496.49 524.64 499.17 524.57 501.84 524.63 C 502.31 525.27 502.78 525.90 503.25 526.53 C 500.57 526.54 497.87 526.51 495.21 526.19 C 494.74 525.70 494.28 525.21 493.82 524.71 Z" fill="#0c141b" />
<path d="M 501.84 524.63 C 506.61 525.03 511.32 524.69 516.09 524.55 C 516.32 525.24 516.56 525.93 516.80 526.63 C 512.28 526.58 507.77 526.37 503.25 526.53 C 502.78 525.90 502.31 525.27 501.84 524.63 Z" fill="#0c141b" />
</svg>